<?xml version="1.0" encoding="UTF-8" standalone="no"?>
<svg
   xmlns:dc="http://purl.org/dc/elements/1.1/"
   xmlns:cc="http://creativecommons.org/ns#"
   xmlns:rdf="http://www.w3.org/1999/02/22-rdf-syntax-ns#"
   xmlns:svg="http://www.w3.org/2000/svg"
   xmlns="http://www.w3.org/2000/svg"
   xmlns:sodipodi="http://sodipodi.sourceforge.net/DTD/sodipodi-0.dtd"
   xmlns:inkscape="http://www.inkscape.org/namespaces/inkscape"
   version="1.1"
   x="0px"
   y="0px"
   viewBox="0 0 512 512"
   xml:space="preserve"
   id="svg8"
   sodipodi:docname="noun_1193032_cc.svg"
   inkscape:version="0.91 r13725"
   width="512"
   height="512"
   inkscape:export-filename="/home/jeff/Downloads/CoRecMonitor.png"
   inkscape:export-xdpi="96"
   inkscape:export-ydpi="96"><metadata
     id="metadata14"><rdf:RDF><cc:Work
         rdf:about=""><dc:format>image/svg+xml</dc:format><dc:type
           rdf:resource="http://purl.org/dc/dcmitype/StillImage" /><dc:title></dc:title></cc:Work></rdf:RDF></metadata><defs
     id="defs12" /><sodipodi:namedview
     pagecolor="#ffffff"
     bordercolor="#666666"
     borderopacity="1"
     objecttolerance="10"
     gridtolerance="10"
     guidetolerance="10"
     inkscape:pageopacity="0"
     inkscape:pageshadow="2"
     inkscape:window-width="2560"
     inkscape:window-height="1349"
     id="namedview10"
     showgrid="false"
     inkscape:zoom="1.888"
     inkscape:cx="226.00099"
     inkscape:cy="250.45373"
     inkscape:window-x="0"
     inkscape:window-y="0"
     inkscape:window-maximized="1"
     inkscape:current-layer="layer1" /><g
     inkscape:groupmode="layer"
     id="layer1"
     inkscape:label="top"
     transform="translate(0,387)"><circle
       style="opacity:1;fill:#ffffff;fill-opacity:1;stroke:#000000;stroke-width:6.76494884;stroke-linecap:butt;stroke-linejoin:miter;stroke-miterlimit:4;stroke-dasharray:none;stroke-opacity:1"
       id="path4518"
       cx="256"
       cy="-131"
       inkscape:export-filename="C:\Users\Slang\Documents\appPicture.png"
       inkscape:export-xdpi="96"
       inkscape:export-ydpi="96"
       inkscape:transform-center-x="-7.1087509"
       inkscape:transform-center-y="48.221533"
       r="252.61752" /><path
       style="opacity:1;fill:#98700d;fill-opacity:1;stroke:#000000;stroke-width:0.65377337;stroke-linecap:butt;stroke-linejoin:miter;stroke-miterlimit:4;stroke-dasharray:none;stroke-opacity:1"
       d="m 109.41003,-134.61649 0,-89.2896 27.77216,0 27.77219,0 0,89.2896 0,89.289603 -27.77219,0 -27.77216,0 z"
       id="path4516-3"
       inkscape:connector-curvature="0"
       inkscape:export-filename="C:\Users\Slang\Documents\appPicture.png"
       inkscape:export-xdpi="96"
       inkscape:export-ydpi="96"
       inkscape:transform-center-x="-133.26135"
       inkscape:transform-center-y="44.01576" /></g><g
     inkscape:groupmode="layer"
     id="layer2"
     inkscape:label="bottom"
     transform="translate(0,387)"><path
       style="stroke-width:2.49454427"
       d="m 446.9751,-182.65711 -24.72894,0 0,-49.92798 c 0,-4.99279 -4.45119,-9.07781 -9.89155,-9.07781 l -74.18678,0 c -5.44036,0 -9.89157,4.08502 -9.89157,9.07781 l 0,63.5447 -143.42774,0 0,-63.5447 c 0,-4.99279 -4.45121,-9.07781 -9.89157,-9.07781 l -74.18678,0 c -5.440368,0 -9.891577,4.08502 -9.891577,9.07781 l 0,49.92798 -24.728913,0 c -5.440361,0 -9.89157,4.08502 -9.89157,9.07782 l 0,77.161418 c 0,4.9928 4.451209,9.07781 9.89157,9.07781 l 24.728913,0 0,49.927974 c 0,4.992801 4.451209,9.077819 9.891577,9.077819 l 74.18678,0 c 5.44036,0 9.89157,-4.085018 9.89157,-9.077819 l 0,-59.005784 143.42774,0 0,59.005784 c 0,4.992801 4.45121,9.077819 9.89157,9.077819 l 74.18678,0 c 5.44036,0 9.89155,-4.085018 9.89155,-9.077819 l 0,-49.927974 24.72894,0 c 5.44036,0 9.89157,-4.08501 9.89157,-9.07781 l 0,-77.161418 c 0,-4.9928 -4.45121,-9.07782 -9.89157,-9.07782 z m -281.90972,136.167218 -54.40364,0 0,-177.017378 54.40364,0 z m 237.39764,0 -54.40362,0 0,-177.017378 54.40362,0 z"
       id="path2"
       inkscape:connector-curvature="0"
       inkscape:export-filename="C:\Users\Slang\Documents\appPicture.png"
       inkscape:export-xdpi="96"
       inkscape:export-ydpi="96"
       inkscape:transform-center-x="-7.2156768"
       inkscape:transform-center-y="43.092738" /><path
       style="opacity:1;fill:#98700d;fill-opacity:1;stroke:#000000;stroke-width:0.65377337;stroke-linecap:butt;stroke-linejoin:miter;stroke-miterlimit:4;stroke-dasharray:none;stroke-opacity:1"
       d="m 347.2723,-134.61649 0,-89.2896 27.77216,0 27.77219,0 0,89.2896 0,89.289603 -27.77219,0 -27.77216,0 z"
       id="path4516"
       inkscape:connector-curvature="0"
       inkscape:export-filename="C:\Users\Slang\Documents\appPicture.png"
       inkscape:export-xdpi="96"
       inkscape:export-ydpi="96"
       inkscape:transform-center-x="-133.26135"
       inkscape:transform-center-y="44.01576" /></g></svg>